<?xml version="1.0" encoding="utf-8"?>
<!-- Generator: Adobe Illustrator 23.0.1, SVG Export Plug-In . SVG Version: 6.00 Build 0)  -->
<svg version="1.1" id="Camada_1" xmlns="http://www.w3.org/2000/svg" xmlns:xlink="http://www.w3.org/1999/xlink" x="0px" y="0px"
	 viewBox="0 0 698 698" style="enable-background:new 0 0 698 698;" xml:space="preserve">
<style type="text/css">
	.st0{opacity:0.5;}
	.st1{fill:url(#SVGID_1_);}
	.st2{fill:#F5F5F5;}
	.st3{fill:#333333;}
	.st4{opacity:0.1;enable-background:new    ;}
	.st5{fill:#FDB797;}
	.st6{stroke:#FFFFFF;stroke-miterlimit:10;}
</style>
<title>avatar</title>
<g class="st0">
	
		<linearGradient id="SVGID_1_" gradientUnits="userSpaceOnUse" x1="349" y1="1364" x2="349" y2="666" gradientTransform="matrix(1 0 0 1 0 -666)">
		<stop  offset="0" style="stop-color:#808080;stop-opacity:0.25"/>
		<stop  offset="0.54" style="stop-color:#808080;stop-opacity:0.12"/>
		<stop  offset="1" style="stop-color:#808080;stop-opacity:0.1"/>
	</linearGradient>
	<circle class="st1" cx="349" cy="349" r="349"/>
</g>
<circle class="st2" cx="349.7" cy="346.8" r="341.6"/>
<path d="M350,689.8c66.8,0.1,132.1-19.4,187.8-56.2c-12.6-68.8-60.5-72.7-60.5-72.7H213.1c0,0-45.2,3.7-59.3,67
	C211.2,668.2,279.8,689.9,350,689.8z"/>
<circle class="st3" cx="346.4" cy="339.6" r="164.9"/>
<path class="st4" d="M293.1,476.9h105.7v84.5c0,29.2-23.6,52.8-52.8,52.8l0,0c-29.2,0-52.8-23.7-52.8-52.8c0,0,0,0,0,0l0,0
	L293.1,476.9L293.1,476.9L293.1,476.9z"/>
<path class="st5" d="M296.5,473h99c1.9,0,3.4,1.5,3.4,3.4l0,0l0,0v81.2c0,29.2-23.6,52.8-52.8,52.8c0,0,0,0,0,0l0,0
	c-29.2,0-52.8-23.7-52.8-52.8c0,0,0,0,0,0l0,0v-81.2C293.2,474.5,294.7,473,296.5,473z"/>
<path class="st4" d="M293.3,516.8c34.1,12.7,71.5,12.8,105.7,0.3v-13H293.3V516.8z"/>
<circle class="st5" cx="346.4" cy="372.4" r="151.5"/>
<path class="st3" d="M237.9,224c4.3-13.3,11.7-25.4,21.7-35.3c29.8-29.4,78.6-35.7,103.7-69.2c6,9.3,1.4,23.7-9,27.7
	c24-0.2,51.8-2.3,65.4-22c6.8,15.9,3.9,34.4-7.6,47.4c21.3,1,44,15.4,45.3,36.6c0.9,14.2-8,27.6-19.6,35.7s-25.7,11.9-39.6,14.9
	C357.9,268.7,211.5,306.1,237.9,224z"/>
<ellipse class="st5" cx="194.9" cy="372.3" rx="14.1" ry="26.4"/>
<ellipse class="st5" cx="497.8" cy="372.3" rx="14.1" ry="26.4"/>
<path d="M194.9,345.9c0,0,176.7-62.1,302.9,0c0,0,11-6.2,12.3,13.5c0,0,2.9-56.3-11.5-83.4s-207.7-60-303.6,0
	c0,0-18.6,30.3-12.3,83.2C182.6,359.2,184.8,340.3,194.9,345.9z"/>
<image style="overflow:visible;enable-background:new    ;" width="1730" height="1734" xlink:href="logo_transp.png"  transform="matrix(4.000000e-02 0 0 4.000000e-02 317.78 246.23)">
</image>
<path class="st6" d="M406.6,558.8l40.8,8.2c0,0-32.7,101.1-41.1,101.6L356.7,648L406.6,558.8z"/>
<path class="st6" d="M280,554.6l-34.3,12.9c0,0,40,102,49.9,107l61-26.6L280,554.6z"/>
<polyline class="st6" points="424.5,632.4 464,642 457.5,672.5 "/>
</svg>
