<svg id="Camada_1" data-name="Camada 1" xmlns="http://www.w3.org/2000/svg" xmlns:xlink="http://www.w3.org/1999/xlink" viewBox="0 0 698 698"><defs><style>.cls-1{opacity:0.5;}.cls-2{fill:url(#Gradiente_sem_nome);}.cls-3{fill:#f5f5f5;}.cls-4{fill:#333;}.cls-5{opacity:0.1;}.cls-5,.cls-7{isolation:isolate;}.cls-6{fill:#fdb797;}.cls-8{stroke:#fff;stroke-miterlimit:10;}</style><linearGradient id="Gradiente_sem_nome" x1="349" y1="1364" x2="349" y2="666" gradientTransform="translate(0 -666)" gradientUnits="userSpaceOnUse"><stop offset="0" stop-color="gray" stop-opacity="0.25"/><stop offset="0.54" stop-color="gray" stop-opacity="0.12"/><stop offset="1" stop-color="gray" stop-opacity="0.1"/></linearGradient></defs><title>avatar</title><g class="cls-1"><circle class="cls-2" cx="349" cy="349" r="349"/></g><circle class="cls-3" cx="349.68" cy="346.77" r="341.64"/><path d="M350,689.76a340,340,0,0,0,187.79-56.2c-12.59-68.8-60.5-72.72-60.5-72.72H213.09s-45.21,3.71-59.33,67A340.08,340.08,0,0,0,350,689.76Z"/><circle class="cls-4" cx="346.37" cy="339.57" r="164.9"/><path class="cls-5" d="M293.15,476.92H398.81v84.53A52.83,52.83,0,0,1,346,614.28h0a52.83,52.83,0,0,1-52.83-52.83h0V476.92h0Z"/><path class="cls-6" d="M296.5,473h99a3.35,3.35,0,0,1,3.35,3.35h0v81.18A52.83,52.83,0,0,1,346,610.37h0a52.83,52.83,0,0,1-52.83-52.83h0V476.35A3.35,3.35,0,0,1,296.5,473Z"/><path class="cls-5" d="M293.34,516.82a152.06,152.06,0,0,0,105.66.29v-13H293.34Z"/><circle class="cls-6" cx="346.37" cy="372.44" r="151.45"/><path class="cls-4" d="M237.93,224a87.43,87.43,0,0,1,21.69-35.27c29.79-29.45,78.63-35.66,103.68-69.24,6,9.32,1.36,23.65-9,27.65,24-.16,51.81-2.26,65.38-22a44.88,44.88,0,0,1-7.57,47.4c21.27,1,44,15.4,45.34,36.65.92,14.16-8,27.56-19.59,35.68s-25.71,11.85-39.56,14.9C357.86,268.7,211.54,306.07,237.93,224Z"/><ellipse class="cls-6" cx="194.86" cy="372.3" rx="14.09" ry="26.42"/><ellipse class="cls-6" cx="497.8" cy="372.3" rx="14.09" ry="26.42"/><path d="M194.86,345.88s176.74-62.12,302.94,0c0,0,10.95-6.22,12.28,13.48,0,0,2.92-56.26-11.51-83.35s-207.73-60-303.65,0c0,0-18.65,30.33-12.29,83.16C182.63,359.17,184.82,340.34,194.86,345.88Z"/><image class="cls-7" width="1730" height="1734" transform="translate(317.78 246.23) scale(0.04)" xlink:href="../Responsive-Login-Form/img/logo_transp.png"/><path class="cls-8" d="M406.61,558.76,447.44,567s-32.74,101.14-41.15,101.6L356.71,648Z"/><path class="cls-8" d="M280,554.65l-34.29,12.9s40,102,49.92,107l61-26.57Z"/><polyline class="cls-8" points="424.47 632.41 464 642 457.51 672.49"/></svg>