<?xml version="1.0" encoding="utf-8"?>
<!-- Generator: Adobe Illustrator 23.0.1, SVG Export Plug-In . SVG Version: 6.00 Build 0)  -->
<svg version="1.1" id="ae7ad495-543d-4c4b-9483-8059c5566fe6"
	 xmlns="http://www.w3.org/2000/svg" xmlns:xlink="http://www.w3.org/1999/xlink" x="0px" y="0px" viewBox="0 0 1009.5 839.6"
	 style="enable-background:new 0 0 1009.5 839.6;" xml:space="preserve">
<style type="text/css">
	.st0{opacity:0.1;fill:#F60000;enable-background:new    ;}
	.st1{opacity:0.1;fill:#38D39F;enable-background:new    ;}
	.st2{fill:#38D39F;}
	.st3{fill:#444053;}
	.st4{fill:#3A3768;}
	.st5{fill:#FF5646;}
	.st6{fill:#E6E8EC;}
	.st7{fill:#8E6F7F;}
	.st8{opacity:0.1;enable-background:new    ;}
	.st9{fill:#BC8487;}
	.st10{fill:#FFC4D0;}
	.st11{fill:#EAEAF2;}
	.st12{stroke:#FFFFFF;stroke-miterlimit:10;}
	.st13{fill:#FFD037;}
	.st14{fill:#A8A8A8;}
	.st15{opacity:0.2;enable-background:new    ;}
	.st16{fill:none;stroke:#FFFFFF;stroke-miterlimit:10;}
</style>
<title>personalization</title>
<path class="st0" d="M586.6,111.4c-64.7-2.3-126.4-23.1-185.2-46S284.2,17.2,221,5.1C180.4-2.7,133.9-3.8,101.2,18
	C69.7,39,59.5,75.1,54,108.7c-4.1,25.3-6.5,51.9,4.7,75.5c7.8,16.4,21.7,30.2,31.4,46c33.5,54.7,9.8,122.2-26.4,175.6
	c-17,25.1-36.8,49-49.9,75.7c-13.1,26.7-19.2,57.3-7.7,84.5c11.4,27,38.5,47.2,67.9,61.5c59.7,29,130,37.2,198.6,41.9
	c151.8,10.4,304.5,5.9,456.7,1.4c56.3-1.7,112.9-3.4,168.3-12.1c30.8-4.8,62.6-12.5,84.9-31c28.4-23.5,35.4-63.4,16.4-92.9
	c-31.9-49.5-120-61.8-142.3-114.9c-12.3-29.2,0.3-61.8,18.2-88.9c38.2-58.2,102.3-109.2,105.7-175.7c2.3-45.7-28.5-91.4-76.1-113
	c-49.9-22.6-119.2-19.8-156,17.7C710.4,98.5,643.7,113.4,586.6,111.4z"/>
<ellipse class="st1" cx="483.5" cy="781" rx="304" ry="41.1"/>
<path class="st2" d="M333,658.6c0,0,21-3.4,33.6,11.5c0,0-9.2,7.3-29.1-2.8L333,658.6z"/>
<path class="st2" d="M330.8,658.2c0,0-13.4,16.6-6.8,34.9c0,0,10.9-4.4,12.1-26.6L330.8,658.2z"/>
<path class="st2" d="M318.8,631.1c0,0,8.4-15.4,42,6.2c0,0-4.5,10.4-19.3,9.5S322.6,639.3,318.8,631.1z"/>
<path class="st2" d="M316.6,630c0,0-17.4-2-19.1,37.9c0,0,11,2.3,18.9-10.3S320.9,637.9,316.6,630z"/>
<path class="st2" d="M306.4,598.2c0,0,9.8-27.2,45.4-7.8c0,0-8.1,24.9-41.7,17.1L306.4,598.2z"/>
<path class="st2" d="M295.5,557.6c0,0,18.5-27.4,51.3-2c0,0-11.5,25.8-48.5,11.8L295.5,557.6z"/>
<path class="st2" d="M291.6,519c0,0,21.6-25.2,54,0c0,0-20.5,22.1-54,6.4V519z"/>
<path class="st2" d="M288.2,481.4c0,0,21.8-26.3,52.9-1.4c0,0-24.6,23.2-52.9,7.6V481.4z"/>
<path class="st2" d="M290.2,448.1c0,0,23-33.9,52.1-10.9c0,0-24.6,29.1-52.1,17.4V448.1z"/>
<path class="st2" d="M295.5,409.2c0,0,24.4-33.6,52.6-7.8c0,0-28.9,29.1-52.6,14V409.2z"/>
<path class="st2" d="M303.6,374.4c0,0,28.8-31.6,54-19c0,0-30.1,33.5-55.3,27.4L303.6,374.4z"/>
<path class="st2" d="M313.7,341.4c0,0,33.3-38.6,52.6-25.8c0,0-24.5,30-55,33L313.7,341.4z"/>
<path class="st2" d="M328.2,303.2c0,0,29.1-31.6,50.4-23.7c0,0-24.9,32.8-54.3,33.6L328.2,303.2z"/>
<path class="st2" d="M341.4,267.4c0,0,32.2-30.2,46.2-24.9c0,0-23.2,33.6-47.6,31.6L341.4,267.4z"/>
<path class="st2" d="M354.3,234.3c0,0,27.7-36.1,42.8-33.3c0,0-16.8,32.2-42.8,37V234.3z"/>
<path class="st2" d="M368.3,189.8c0,0,24.5-27.7,37.7-27.6c0,0-19.3,37-38.7,36.7L368.3,189.8z"/>
<path class="st2" d="M376.5,160.1l23.7-57.7c0,0,1.2,52.1-26.7,68.4L376.5,160.1z"/>
<path class="st2" d="M386.1,96.5c0,0,3.9-48.2,1.4-52.1c0,0,16.9,40-1.6,73.4L386.1,96.5z"/>
<path class="st2" d="M305.5,597.5c0,0-24.5-15.2-40.4,22c0,0,21.8,14.5,43.3-12.5L305.5,597.5z"/>
<path class="st2" d="M294.7,556c0,0-30.1-13.7-44.7,25.1c0,0,23.3,16,47.5-15.3L294.7,556z"/>
<path class="st2" d="M290.2,521.3c0,0-21.6-25.2-54,0c0,0,20.4,22.1,54,6.4V521.3z"/>
<path class="st2" d="M287.5,481.4c0,0-21.9-26.3-52.9-1.4c0,0,24.6,23.2,52.9,7.6V481.4z"/>
<path class="st2" d="M290.2,449.1c0,0-15.3-38-48.6-21.6c0,0,18,33.7,47.3,27.9L290.2,449.1z"/>
<path class="st2" d="M297.4,409c0,0-15.2-38.6-49-20.7c0,0,20.7,35.4,47.5,26.7L297.4,409z"/>
<path class="st2" d="M306.8,374.6c0,0-6-42.3-34-46.1c0,0,5.9,44.6,30.2,53.8L306.8,374.6z"/>
<path class="st2" d="M314.4,341.5c0,0-2.4-51-25.5-52.8c0,0,0.8,38.7,22.9,60L314.4,341.5z"/>
<path class="st2" d="M330.6,301.7c0,0-6.9-42.4-29-47.6c0,0,2.7,41.1,26.8,58L330.6,301.7z"/>
<path class="st2" d="M344,267.7c0,0-0.2-44.2-13.7-50.7c0,0-8.4,40,9.8,56.3L344,267.7z"/>
<path class="st2" d="M355.3,233.8c0,0-1.9-45.5-15.9-51.9c0,0-4.8,36,13.8,54.9L355.3,233.8z"/>
<path class="st2" d="M370.2,193.4c0,0-0.1-37-10.1-45.7c0,0-9.9,40.5,4.9,53.1L370.2,193.4z"/>
<path class="st2" d="M375.4,158.3l-9.7-61.6c0,0-13.2,50.5,10.2,72.7L375.4,158.3z"/>
<path class="st2" d="M377.3,97.1c0,0-24.9-41.4-24.4-46c0,0,2.6,43.4,34,65L377.3,97.1z"/>
<path class="st2" d="M380.2,84.9c0,0-23.5-58.8-34.2-63.6c0,0,33.6,17.1,36.1,61.9L380.2,84.9z"/>
<path class="st3" d="M367.1,199.2l-1.6-0.5c19.9-64.7,24.8-106,14-116.3l1.2-1.2C392.1,92,387.5,132.8,367.1,199.2z"/>
<path class="st3" d="M312.5,350.7l-2.4-0.8c2.1-5.9,4.4-12,6.8-17.9c20.7-51.6,38.4-99.7,49.7-136.6l2.1-1
	c-11.3,37-28.6,86.8-49.4,138.5C316.8,338.8,314.6,344.8,312.5,350.7z"/>
<path class="st3" d="M362.6,707c-0.3-0.4-32.5-36.6-54.9-98.4c-13.1-36.2-20.5-74.3-21.7-112.8c-1.5-48.1,8.6-101.9,25.9-150.7
	l1.9,2.2c-38.8,109.6-23.4,203.5-2.9,260c22.2,61.3,54,97.1,54.3,97.5L362.6,707z"/>
<path class="st4" d="M645.1,289.8h4.3c1.3,0,2.3,1,2.3,2.3v68.4c0,1.3-1,2.3-2.3,2.3h-4.3c-1.3,0-2.3-1-2.3-2.3v-68.4
	C642.8,290.8,643.8,289.8,645.1,289.8z"/>
<path class="st4" d="M350.7,232.6h0.4c1.3,0,2.3,1,2.3,2.3v19.5c0,1.3-1,2.3-2.3,2.3h-0.4c-1.3,0-2.3-1-2.3-2.3v-19.5
	C348.4,233.6,349.4,232.6,350.7,232.6z"/>
<path class="st4" d="M350.5,276.6h1c1.3,0,2.3,1,2.3,2.3v37.3c0,1.3-1,2.3-2.3,2.3h-1c-1.3,0-2.3-1-2.3-2.3v-37.3
	C348.2,277.7,349.2,276.6,350.5,276.6z"/>
<path class="st4" d="M350.6,333.1h0.7c1.3,0,2.3,1,2.3,2.3V373c0,1.3-1,2.3-2.3,2.3h-0.7c-1.3,0-2.3-1-2.3-2.3v-37.6
	C348.3,334.1,349.3,333.1,350.6,333.1z"/>
<path class="st4" d="M390.2,153.2h218.4c21.5,0,39,17.5,39,39v524.4c0,21.5-17.5,39-39,39H390.2c-21.5,0-39-17.5-39-39V192.2
	C351.2,170.6,368.6,153.2,390.2,153.2z"/>
<path class="st5" d="M605.8,168.8h-34v4.1c0,10.7-8.7,19.4-19.4,19.4c0,0,0,0,0,0H444.2c-10.7,0-19.4-8.7-19.4-19.4c0,0,0,0,0,0
	v-4.1H393c-13,0-23.5,10.5-23.5,23.5v0v524c0,13,10.5,23.5,23.5,23.5h212.7c13,0,23.5-10.5,23.5-23.5V192.4
	C629.3,179.4,618.8,168.8,605.8,168.8C605.8,168.8,605.8,168.8,605.8,168.8z"/>
<image style="overflow:visible;" width="512" height="512" xlink:href="../../site/pedido online/af9ad22ee3516e346572e484e9d0daad-japan-japanese-by-vexels.png"  transform="matrix(0.5906 0 0 0.5906 352.6599 219.774)">
</image>
<path class="st6" d="M474.7,171.2h33.6c2.1,0,3.9,1.7,3.9,3.9v0.7c0,2.1-1.7,3.9-3.9,3.9h-33.6c-2.1,0-3.9-1.7-3.9-3.9V175
	C470.8,172.9,472.5,171.2,474.7,171.2z"/>
<circle class="st6" cx="523.2" cy="175.4" r="4.8"/>
<rect x="395.9" y="226.2" class="st0" width="206.9" height="439.2"/>
<polygon class="st7" points="437,768.4 416.9,770.4 416.3,763.7 415.9,759.1 415.4,752.3 434.4,753.3 435.9,762 436.2,763.9 
	436.2,763.9 "/>
<polygon class="st7" points="583.4,753.3 582.9,760.1 582.5,764.7 581.9,771.4 561.8,769.4 562.6,764.9 562.9,763 564.4,754.3 "/>
<path d="M562.1,655.9l-59.8,2.8c-2.7,0.1-5.4,0.1-8.2,0l-57.1-2.8v-45.3h125.1V655.9z"/>
<path class="st8" d="M562.1,655.9l-59.8,2.8c-2.7,0.1-5.4,0.1-8.2,0l-57.1-2.8v-45.3h125.1V655.9z"/>
<path d="M485.5,488.7c0,0-19.9,6.7-27.4,12.2c-1.6,1.1-3,2.1-4.3,2.8c-4.6,2.9-8.2,7.2-10.1,12.3c0,0.1-0.1,0.3-0.2,0.4
	c-1,2.3-5.8,17.5-5.8,17.5s-3.5,8.5-4,14s28.5,20.3,28.5,20.3s-14,30.5-7.8,38.3s97.5,11.5,95.5,0s-5.5-30.5-3.8-35.8l31-22.5
	c0,0-1.3-31.5-11-39.8s-22-11.3-22-11.3l-19.4-5c0,0-6.8,17-14.3,19.3C503.1,513.7,486.7,503.3,485.5,488.7z"/>
<path class="st8" d="M435.9,762c-4.3,0-8.6-0.5-12.8-1.3c-2.1-0.5-4.7-1.1-7.1-1.6l-0.6-6.8l19,1L435.9,762z"/>
<path d="M499.2,658.8c-1.7,4.7-51.2,3.8-51.2,3.8s-2.7,70-6.7,78.7S437,761,437,761s-8.7,0-14-1.3s-14-3-14-3l2.3-118.8
	c0,0,1-1.3,3.3-8.8c1.5-4.8,10.3-11.1,16.4-15c3.4-2.1,5.9-3.5,5.9-3.5l29.6,1.2l18.3,0.7C484.9,612.6,500.9,654.2,499.2,658.8z"/>
<path class="st8" d="M437,768.4l-20.1,2l-0.6-6.7c0.8,0,1.5,0.2,2.2,0.5c3.7,2.6,14.2,0.5,17.7-0.3l0,0L437,768.4z"/>
<path class="st9" d="M440.8,787.9c0,1.9-0.9,3.8-2.4,4.9c-1.3,1-2.8,1.6-4.3,1.9c-0.9,0.1-1.8,0.6-2.3,1.3c-2.2,3.1-5.3,5.6-8.8,7.1
	c-6.9,2.7-16.7,5.4-21.3,1.2c-0.4-0.3-0.7-0.7-1-1.1c-6.4-9.1,4.1-18.9,4.1-18.9s4.7-11.1,6.9-16.2c0.9-2.6,3.8-4,6.4-3.1
	c0.2,0.1,0.3,0.1,0.5,0.2c4,2.9,16.1,0.1,18.5-0.5s3.1,9.1,3.1,9.1l0.6,13.9C440.8,787.8,440.8,787.8,440.8,787.9z"/>
<path class="st8" d="M583.4,753.3l-0.6,6.8c-2.4,0.5-5,1.1-7.1,1.6c-4.2,0.8-8.5,1.3-12.8,1.3l1.5-8.7L583.4,753.3z"/>
<path d="M589.8,757.7c0,0-8.7,1.7-14,3s-14,1.3-14,1.3s-0.3-11-4.3-19.7s-6.7-78.7-6.7-78.7s-46.8-0.3-48.5-4.9s20.4-45,20.4-45
	l13.5-0.7l25.6-1.4c0,0,5,2.7,10.2,6.4s10.9,8.3,12.1,12.1c2.3,7.5,3.3,8.8,3.3,8.8L589.8,757.7z"/>
<path class="st8" d="M582.5,764.7l-0.6,6.7l-20.1-2l0.8-4.5c3.5,0.8,14,2.9,17.7,0.3C581,764.9,581.7,764.7,582.5,764.7z"/>
<path class="st9" d="M580.3,766.2c2.5-1.2,5.5-0.1,6.7,2.4c0.1,0.2,0.2,0.3,0.2,0.5c2.1,5.1,6.9,16.3,6.9,16.3s10.5,9.8,4.1,18.9
	c-4,5.7-14.8,2.8-22.2-0.1c-3.5-1.5-6.6-4-8.8-7.1c-0.6-0.7-1.4-1.2-2.3-1.3c-1.6-0.3-3.2-1-4.4-2c-1.5-1.1-2.4-3-2.3-4.9l0.6-14
	c0,0,0.8-9.7,3.1-9.1S576.3,769,580.3,766.2z"/>
<path class="st10" d="M528.6,497.2l-20.2,21.4l-0.6,0.6l-0.7-0.4c-4.2-2.5-25.3-15.2-23.5-19.1c1-2.2,1.6-6.7,1.9-10.6
	c0-0.5,0.1-0.9,0.1-1.4c0.2-3.1,0.3-5.5,0.3-5.5s38-6.5,36.5,0c-0.6,2.6,0.3,5.6,1.6,8.2c0.4,0.8,0.8,1.5,1.2,2.1
	C526.2,494.1,527.3,495.7,528.6,497.2z"/>
<path class="st8" d="M523.9,490.4c-11.7,8.6-28,7.5-38.3-2.7c0.2-3.1,0.3-5.5,0.3-5.5s38-6.5,36.5,0
	C521.8,484.8,522.7,487.8,523.9,490.4z"/>
<path class="st10" d="M536,465.5c0.2,16.4-12.9,29.9-29.2,30.1c-15.6,0.2-28.7-11.7-30-27.3c-0.1-0.9-0.1-1.9-0.1-2.8
	c-0.3-16.4,12.7-29.9,29.1-30.2c16.4-0.3,29.9,12.7,30.2,29.1C536,464.7,536,465.1,536,465.5L536,465.5z"/>
<path class="st10" d="M535.5,630.9l-5.4,1.5l-12.5,3.4c-2.9,2.2-6.1,3.8-9.6,4.8c-7.6,1.9-12.6-2.3-16.7-8.8
	c-1.7-2.6-0.8-4.7,1.3-6.3c5.2-3.9,18.1-5.2,22-4.7c2.6,0.2,5.2-0.2,7.6-1.2c1.7-0.6,3.3-1.4,4.9-2.3L535.5,630.9z"/>
<path class="st8" d="M535.5,630.9l-5.4,1.5c-1.5-4.7-4.1-10.5-7.8-12.8c1.7-0.6,3.3-1.4,4.9-2.3L535.5,630.9z"/>
<path class="st8" d="M572,618.1c-2.2,1.8-4.1,3.5-4.1,3.5s-26,8.2-31,18.4c0,0-4-20-12.5-20.3c0,0,9.2-3.6,11.8-6.7l25.6-1.3
	C561.8,611.7,566.8,614.4,572,618.1z"/>
<path class="st11" d="M571.6,539.7l5.8,8.5l1.8,26.5c0,0,0.5,25.5,0,26.5l0.5-1c0,0-1,10-4,11.8s-9.8,7.6-9.8,7.6s-26,8.2-31,18.4
	c0,0-4-20-12.5-20.3c0,0,12.8-5,12.5-8.3c0,0,9.8-8.8,10.5-11s5.6-2.5,5.6-2.5s1.1-15.5-1.1-18s-3.5-7.3-3.5-7.3L571.6,539.7z"/>
<path class="st8" d="M508,640.6c-7.6,1.9-12.6-2.3-16.7-8.8c-1.7-2.6-0.8-4.7,1.3-6.3l0.8,0.3C493.5,625.8,507.2,631.8,508,640.6z"
	/>
<path class="st10" d="M504.9,648.5c-9,12.5-25.8-4.9-27-8.4c-0.5-1.3-2.2-2.4-4.1-3.3c-2.5-1.1-5.1-2-7.8-2.6l14.9-12.1l2.8,1.1
	l8.8,3.5C492.5,626.8,513.9,636,504.9,648.5z"/>
<path class="st8" d="M483.7,623.3c-8.2,3.9-10,9.5-10,13.5c-2.5-1.1-5.1-2-7.8-2.6l14.9-12.1L483.7,623.3z"/>
<path class="st8" d="M470.6,644.9c0,0-24-19-35.5-27.3c-1.4-1-2.8-2.2-4-3.5c3.4-2.1,5.9-3.5,5.9-3.5l29.6,1.2
	c0.8,1.4,1.3,2.3,1.3,2.3l16,10.5C464.6,630.9,470.6,644.9,470.6,644.9z"/>
<path class="st11" d="M438.6,545.2l-4.8,2.8c0,0-5.8,18.3-4.3,30.3c0,0-4.5,17.3-2.8,20c0,0-2.3,9.3,9.3,17.5s35.5,27.3,35.5,27.3
	s-6-14,13.3-20.3l-16-10.5c0,0-5.4-10.7-10.5-13c0,0-4-4-1.5-6.8s4.5-5.8,4.5-8.5s1-15.8,1-15.8l3-14L438.6,545.2z"/>
<path class="st8" d="M525.9,493.2l12.6,3.3c0,0-11.9,31-14.6,31l-15.1-7.3L525.9,493.2z"/>
<path class="st8" d="M528.6,497.2l-20.2,21.4l-0.6,0.6l-0.7-0.4l17.6-26.9l0.4,0.7C526.2,494.2,527.3,495.7,528.6,497.2z"/>
<path class="st12" d="M524.9,492.2l12.6,3.3c0,0-11.9,31-14.6,31l-15.1-7.3L524.9,492.2z"/>
<path class="st8" d="M484.5,489.7l-10.9,3.4c0,0,10.8,32.5,13.8,34.3l19.5-7.3L484.5,489.7z"/>
<path class="st8" d="M508.4,518.6l-0.6,0.6c0,0-26.3-15.3-24.3-19.5c1-2.2,1.6-6.7,1.9-10.6v-0.6L508.4,518.6z"/>
<path class="st12" d="M485.5,488.7l-10.9,3.4c0,0,10.8,32.5,13.8,34.3l19.5-7.3L485.5,488.7z"/>
<path class="st8" d="M459.5,541.8c0,0,6.6,1.2,6.5,8s2.7-8.8,2.7-8.8L459.5,541.8z"/>
<path class="st8" d="M461,562.8c0,0-1.8,10.3,0,19.7s1.7,12.5,3.1,13S461,562.8,461,562.8z"/>
<path class="st8" d="M545,561.8c-2,0.3-3.4,2.1-3.1,4c0,0.2,0.1,0.4,0.1,0.6C542.9,570.7,545,561.8,545,561.8z"/>
<path class="st8" d="M430.7,596.8c0,0,21.4-1.8,25,2S430.7,596.8,430.7,596.8z"/>
<path class="st8" d="M555,598.3c0,0,15.7-1.9,19.3,0.7"/>
<path class="st8" d="M561.4,600.8c0,0,9.3,0.3,11.5,1.5"/>
<path class="st8" d="M563.2,604.2c0,0,8.5-0.3,9.7,1"/>
<path class="st8" d="M443.3,651.2c0,0,7.3,3.8,6.5,7.7S443.3,651.2,443.3,651.2z"/>
<path class="st8" d="M437,653c0,0,11.1,14.4,9.6,19.2S437,653,437,653z"/>
<path class="st8" d="M556.1,655.4c0,0-5.5,4.5-5.3,8.3"/>
<path class="st8" d="M429.1,744.7c0,0,0,4.3,7.9,10.5"/>
<path class="st8" d="M568,734.7c0,0-0.8,8.8-8.5,13.4"/>
<path class="st8" d="M404.8,784.3c0,0,8.2-2.5,11.6,2.3"/>
<path class="st8" d="M594,785.3c0,0-13.5-0.8-13,2.9"/>
<ellipse class="st1" cx="864.2" cy="773.3" rx="26.9" ry="4.5"/>
<ellipse class="st1" cx="91.1" cy="810.7" rx="26.9" ry="4.5"/>
<ellipse class="st1" cx="195.3" cy="835.1" rx="26.9" ry="4.5"/>
<ellipse class="st2" cx="805.2" cy="822.1" rx="40.2" ry="6.8"/>
<path class="st2" d="M821.9,811c1.8-1.5,3.2-3.5,3.8-5.8c0.5-2.3-0.5-5-2.7-5.9c-2.5-0.9-5.1,0.8-7.1,2.5s-4.3,3.7-6.9,3.3
	c2.7-2.5,4-6.2,3.3-9.8c-0.1-0.7-0.4-1.4-0.9-2c-1.4-1.5-3.8-0.8-5.5,0.3c-5.2,3.7-6.7,10.7-6.7,17.1c-0.5-2.3-0.1-4.7-0.1-7
	s-0.7-5-2.6-6.2c-1.2-0.7-2.6-1-4-0.9c-2.3-0.1-4.9,0.2-6.5,1.9c-2,2.1-1.5,5.7,0.3,8s4.3,3.8,6.8,5.4c1.9,1.2,3.6,2.7,4.8,4.6
	c0.1,0.3,0.3,0.5,0.4,0.8h14.6C816.1,815.6,819.1,813.5,821.9,811z"/>
<path class="st2" d="M196.6,723.3c0,0,5.5,7.2-2.5,18s-14.6,20-12,26.8c0,0,12.1-20.2,22-20.4S207.5,735.4,196.6,723.3z"/>
<path class="st8" d="M196.6,723.3c0.5,0.7,0.9,1.5,1.1,2.3c9.6,11.3,14.8,21.8,5.5,22.1c-8.6,0.3-18.9,15.7-21.4,19.5
	c0.1,0.3,0.2,0.6,0.3,0.9c0,0,12.1-20.2,22-20.4S207.5,735.4,196.6,723.3z"/>
<path class="st13" d="M206.9,732.4c0,2.5-0.3,4.6-0.6,4.6s-0.6-2-0.6-4.6s0.4-1.3,0.7-1.3S206.9,729.9,206.9,732.4z"/>
<path class="st13" d="M210.4,735.5c-2.2,1.2-4.2,1.9-4.3,1.6s1.5-1.5,3.7-2.8s1.4-0.3,1.5,0S212.6,734.2,210.4,735.5z"/>
<path class="st2" d="M167.6,723.3c0,0-5.5,7.2,2.5,18s14.6,20,12,26.8c0,0-12.1-20.2-22-20.4S156.8,735.4,167.6,723.3z"/>
<path class="st8" d="M167.6,723.3c-0.5,0.7-0.9,1.5-1.1,2.3c-9.6,11.3-14.7,21.8-5.5,22.1c8.6,0.3,19,15.7,21.4,19.5
	c-0.1,0.3-0.2,0.6-0.3,0.9c0,0-12.1-20.2-22-20.4S156.8,735.4,167.6,723.3z"/>
<path class="st13" d="M157.4,732.4c0,2.5,0.3,4.6,0.6,4.6s0.6-2,0.6-4.6s-0.4-1.3-0.7-1.3C157.6,731.1,157.4,729.9,157.4,732.4z"/>
<path class="st13" d="M153.9,735.5c2.2,1.2,4.1,1.9,4.3,1.6s-1.5-1.5-3.7-2.8s-1.3-0.3-1.5,0C152.8,734.7,151.7,734.2,153.9,735.5z"
	/>
<path class="st14" d="M159.2,767.1c0,0,15.4-0.5,20-3.8s23.6-7.2,24.8-2s23.1,26.3,5.8,26.4s-40.3-2.7-44.9-5.5
	S159.2,767.1,159.2,767.1z"/>
<path class="st15" d="M210,786c-17.3,0.1-40.3-2.7-44.9-5.5c-3.5-2.2-4.9-9.8-5.4-13.4h-0.5c0,0,1,12.4,5.6,15.2s27.6,5.7,44.9,5.5
	c5,0,6.7-1.8,6.6-4.5C215.6,785,213.7,786,210,786z"/>
<polyline class="st16" points="525.8,522.7 543.4,527.4 517.9,613.6 "/>
<circle class="st11" cx="522.9" cy="553.7" r="2.1"/>
<circle class="st11" cx="488.6" cy="553.7" r="2.1"/>
<circle class="st11" cx="521.9" cy="572.4" r="2.1"/>
<circle class="st11" cx="487.6" cy="572.4" r="2.1"/>
<circle class="st11" cx="516.7" cy="595" r="2.1"/>
<circle class="st11" cx="482.4" cy="595" r="2.1"/>
<path d="M536,465.5c1.2-8.8-5.4-17.5-5.4-17.5c-26.8-16.7-49.3,0.9-49.3,0.9s-5.9,8.1-4.7,16.6c0,0,29.2-16.9,59.3-1.1"/>
<image style="overflow:visible;" width="512" height="512" xlink:href="../../site/pedido online/2855503d0be5396c3d1e07018417dca8---cone-de-cor-de-sushi-by-vexels.png"  transform="matrix(0.2495 0 0 0.2495 656.1899 643.1599)">
</image>
<image style="overflow:visible;" width="1730" height="1734" xlink:href="../../site/site2.0/logo_transp.png"  transform="matrix(8.408931e-03 0 0 8.408931e-03 498.7714 441.7494)">
</image>
</svg>
