<svg id="ae7ad495-543d-4c4b-9483-8059c5566fe6" xmlns="http://www.w3.org/2000/svg" xmlns:xlink="http://www.w3.org/1999/xlink" viewBox="0 0 1009.54 839.64"><defs><style>.cls-1{fill:#f60000;}.cls-1,.cls-2,.cls-9{opacity:0.1;}.cls-1,.cls-16,.cls-2,.cls-9{isolation:isolate;}.cls-2,.cls-3{fill:#38d39f;}.cls-4{fill:#444053;}.cls-5{fill:#3a3768;}.cls-6{fill:#ff5646;}.cls-7{fill:#e6e8ec;}.cls-8{fill:#8e6f7f;}.cls-10{fill:#bc8487;}.cls-11{fill:#ffc4d0;}.cls-12{fill:#eaeaf2;}.cls-13,.cls-17{stroke:#fff;stroke-miterlimit:10;}.cls-14{fill:#ffd037;}.cls-15{fill:#a8a8a8;}.cls-16{opacity:0.2;}.cls-17{fill:none;}</style></defs><title>bg</title><path class="cls-1" d="M586.55,111.4c-64.72-2.25-126.36-23.14-185.22-46S284.17,17.21,221,5.1C180.37-2.69,133.9-3.79,101.17,18,69.66,39,59.48,75.14,54,108.72c-4.12,25.26-6.54,51.85,4.74,75.49,7.84,16.42,21.74,30.22,31.36,45.95,33.47,54.72,9.81,122.2-26.45,175.63-17,25.07-36.75,49-49.88,75.66s-19.2,57.25-7.71,84.47c11.38,27,38.51,47.24,67.9,61.49,59.69,29,130,37.23,198.61,41.92,151.83,10.39,304.46,5.89,456.69,1.39,56.34-1.67,112.92-3.36,168.34-12.07,30.78-4.84,62.55-12.51,84.9-31,28.36-23.53,35.39-63.37,16.38-92.88-31.88-49.49-120-61.78-142.31-114.89-12.26-29.24.33-61.8,18.16-88.92C913,272.75,977.07,221.72,980.44,155.24c2.32-45.66-28.49-91.39-76.13-113-49.93-22.64-119.18-19.8-156,17.69C710.36,98.53,643.7,113.38,586.55,111.4Z"/><ellipse class="cls-2" cx="483.49" cy="780.99" rx="303.97" ry="41.12"/><path class="cls-3" d="M333,658.57s21-3.36,33.6,11.48c0,0-9.24,7.28-29.12-2.8Z"/><path class="cls-3" d="M330.77,658.24s-13.4,16.58-6.83,34.85c0,0,10.92-4.37,12.11-26.63Z"/><path class="cls-3" d="M318.77,631.13s8.4-15.4,42,6.16c0,0-4.48,10.36-19.32,9.52S322.64,639.25,318.77,631.13Z"/><path class="cls-3" d="M316.56,630s-17.43-2-19.12,37.9c0,0,11.05,2.3,18.9-10.33S320.94,637.9,316.56,630Z"/><path class="cls-3" d="M306.4,598.2s9.8-27.17,45.37-7.85c0,0-8.12,24.93-41.73,17.09Z"/><path class="cls-3" d="M295.48,557.59s18.48-27.44,51.25-2c0,0-11.48,25.76-48.45,11.76Z"/><path class="cls-3" d="M291.56,519s21.56-25.2,54,0c0,0-20.45,22.12-54,6.44Z"/><path class="cls-3" d="M288.2,481.43S310,455.1,341.13,480c0,0-24.65,23.24-52.93,7.56Z"/><path class="cls-3" d="M290.16,448.1s23-33.88,52.09-10.92c0,0-24.65,29.13-52.09,17.36Z"/><path class="cls-3" d="M295.48,409.18s24.36-33.6,52.65-7.84c0,0-28.85,29.12-52.65,14Z"/><path class="cls-3" d="M303.61,374.39s28.83-31.57,54-19c0,0-30.06,33.53-55.26,27.37Z"/><path class="cls-3" d="M313.68,341.42s33.33-38.65,52.65-25.77c0,0-24.52,30-55,33.05Z"/><path class="cls-3" d="M328.23,303.16s29.14-31.58,50.42-23.74c0,0-24.92,32.77-54.33,33.61Z"/><path class="cls-3" d="M341.41,267.38s32.2-30.24,46.2-24.92c0,0-23.24,33.6-47.6,31.64Z"/><path class="cls-3" d="M354.29,234.34S382,198.22,397.13,201c0,0-16.8,32.2-42.84,37Z"/><path class="cls-3" d="M368.26,189.82s24.51-27.7,37.74-27.63c0,0-19.34,37-38.74,36.66Z"/><path class="cls-3" d="M376.55,160.13l23.66-57.68s1.19,52.14-26.68,68.38Z"/><path class="cls-3" d="M386.15,96.52s3.92-48.16,1.4-52.08c0,0,16.93,40-1.56,73.36Z"/><path class="cls-3" d="M305.49,597.55s-24.55-15.21-40.43,22c0,0,21.84,14.5,43.31-12.51Z"/><path class="cls-3" d="M294.7,556S264.6,542.31,250,581.16c0,0,23.26,16,47.45-15.3Z"/><path class="cls-3" d="M290.16,521.26s-21.56-25.2-54,0c0,0,20.44,22.12,54,6.44Z"/><path class="cls-3" d="M287.47,481.43s-21.85-26.33-52.93-1.4c0,0,24.64,23.24,52.93,7.56Z"/><path class="cls-3" d="M290.16,449.06s-15.32-37.95-48.62-21.63c0,0,18,33.66,47.27,27.93Z"/><path class="cls-3" d="M297.41,409s-15.22-38.61-49-20.71c0,0,20.68,35.39,47.5,26.68Z"/><path class="cls-3" d="M306.85,374.59s-6-42.34-34-46.13c0,0,5.93,44.64,30.22,53.75Z"/><path class="cls-3" d="M314.4,341.49s-2.35-51-25.5-52.77c0,0,.78,38.7,22.89,60Z"/><path class="cls-3" d="M330.64,301.7s-6.91-42.4-29-47.59c0,0,2.74,41.07,26.81,58Z"/><path class="cls-3" d="M344,267.69s-.24-44.18-13.74-50.67c0,0-8.37,40,9.83,56.31Z"/><path class="cls-3" d="M355.32,233.82s-1.9-45.5-15.87-51.91c0,0-4.79,36,13.77,54.88Z"/><path class="cls-3" d="M370.22,193.42s-.09-37-10.07-45.68c0,0-9.92,40.54,4.86,53.12Z"/><path class="cls-3" d="M375.37,158.31l-9.7-61.59s-13.2,50.47,10.16,72.7Z"/><path class="cls-3" d="M377.27,97.1s-24.93-41.39-24.41-46c0,0,2.64,43.4,34,65Z"/><path class="cls-3" d="M380.19,84.88S356.67,26.07,346,21.31c0,0,33.6,17.08,36.12,61.89Z"/><path class="cls-4" d="M367.13,199.17l-1.61-.49c19.85-64.73,24.81-106,14-116.34l1.16-1.22C392.13,92,387.47,132.82,367.13,199.17Z"/><path class="cls-4" d="M312.47,350.69l-2.37-.84c2.1-5.93,4.37-12,6.75-17.89,20.72-51.64,38.36-99.67,49.67-136.55l2.07-1c-11.33,37-28.65,86.83-49.4,138.53C316.82,338.82,314.56,344.82,312.47,350.69Z"/><path class="cls-4" d="M362.56,707c-.32-.36-32.5-36.58-54.92-98.44a364.33,364.33,0,0,1-21.7-112.76C284.4,447.69,294.5,394,311.8,345.14l1.88,2.2c-38.83,109.56-23.4,203.45-2.94,260,22.2,61.29,54,97.13,54.32,97.48Z"/><rect class="cls-5" x="642.8" y="289.82" width="8.86" height="73.02" rx="2.29"/><rect class="cls-5" x="348.37" y="232.61" width="4.97" height="24.04" rx="2.29"/><rect class="cls-5" x="348.19" y="276.63" width="5.6" height="41.84" rx="2.29"/><rect class="cls-5" x="348.28" y="333.11" width="5.33" height="42.2" rx="2.29"/><rect class="cls-5" x="351.18" y="153.17" width="296.4" height="602.39" rx="38.99"/><path class="cls-6" d="M605.77,168.82h-34v4.09a19.38,19.38,0,0,1-19.38,19.38H444.25a19.38,19.38,0,0,1-19.39-19.37h0v-4.09H393a23.54,23.54,0,0,0-23.54,23.54h0v524A23.54,23.54,0,0,0,393,739.87H605.77a23.54,23.54,0,0,0,23.54-23.54V192.4a23.54,23.54,0,0,0-23.5-23.58Z"/><image width="512" height="512" transform="translate(352.66 219.77) scale(0.59)" xlink:href="../site/pedido%20online/af9ad22ee3516e346572e484e9d0daad-japan-japanese-by-vexels.png"/><rect class="cls-7" x="470.79" y="171.16" width="41.39" height="8.4" rx="3.87"/><circle class="cls-7" cx="523.21" cy="175.36" r="4.77"/><rect class="cls-1" x="395.91" y="226.18" width="206.95" height="439.24"/><polygon class="cls-8" points="436.96 768.43 416.85 770.43 416.29 763.7 415.9 759.07 415.35 752.3 434.35 753.3 435.86 761.99 436.18 763.88 436.19 763.88 436.96 768.43"/><polygon class="cls-8" points="583.41 753.31 582.86 760.07 582.48 764.7 581.91 771.43 561.79 769.43 562.59 764.88 562.9 763 564.41 754.31 583.41 753.31"/><path d="M562.1,655.92l-59.8,2.81q-4.08.19-8.16,0L437,655.93V610.67H562.1Z"/><path class="cls-9" d="M562.1,655.92l-59.8,2.81q-4.08.19-8.16,0L437,655.93V610.67H562.1Z"/><path d="M485.52,488.73s-19.92,6.69-27.42,12.19c-1.56,1.14-3,2.08-4.26,2.85a24.42,24.42,0,0,0-10.07,12.28c0,.14-.1.26-.15.37-1,2.25-5.75,17.5-5.75,17.5s-3.5,8.5-4,14,28.5,20.25,28.5,20.25-14,30.5-7.75,38.25,97.5,11.5,95.5,0-5.5-30.5-3.75-35.75l31-22.5s-1.25-31.5-11-39.75-22-11.25-22-11.25l-19.41-5s-6.84,17-14.34,19.25S486.69,503.28,485.52,488.73Z"/><path class="cls-9" d="M435.86,762A68.39,68.39,0,0,1,423,760.67c-2.09-.52-4.71-1.1-7.1-1.61l-.56-6.77,19,1Z"/><path d="M499.25,658.82c-1.66,4.67-51.24,3.85-51.24,3.85s-2.66,70-6.66,78.67S437,761,437,761s-8.66,0-14-1.33-14-3-14-3l2.34-118.75s1-1.25,3.33-8.76c1.5-4.83,10.3-11.09,16.39-15,3.4-2.14,5.94-3.54,5.94-3.54l29.58,1.2,18.26.74S500.92,654.15,499.25,658.82Z"/><path class="cls-9" d="M437,768.42l-20.12,2-.57-6.73a5.9,5.9,0,0,1,2.19.48c3.67,2.64,14.16.54,17.71-.3h0Z"/><path class="cls-10" d="M440.77,787.87a5.86,5.86,0,0,1-2.41,4.89,9.59,9.59,0,0,1-4.35,1.91,3.23,3.23,0,0,0-2.33,1.3,20.87,20.87,0,0,1-8.8,7.11c-6.93,2.72-16.68,5.39-21.25,1.22a6.33,6.33,0,0,1-1-1.13c-6.37-9.12,4.13-18.88,4.13-18.88s4.74-11.12,6.87-16.24A5,5,0,0,1,418,765l.51.21c4,2.88,16.13.12,18.5-.49s3.13,9.11,3.13,9.11l.64,13.93Z"/><path class="cls-9" d="M583.42,753.3l-.56,6.76c-2.39.51-5,1.09-7.11,1.61A67.56,67.56,0,0,1,562.91,763l1.51-8.69Z"/><path d="M589.77,757.67s-8.66,1.67-14,3-14,1.33-14,1.33-.33-11-4.33-19.66-6.67-78.67-6.67-78.67-46.78-.27-48.45-4.94,20.39-45,20.39-45l13.45-.7,25.61-1.36A120.61,120.61,0,0,1,572,618.06c5.24,3.67,10.93,8.33,12.1,12.1,2.33,7.51,3.33,8.76,3.33,8.76Z"/><path class="cls-9" d="M582.48,764.69l-.56,6.73-20.13-2,.8-4.55c3.55.85,14,2.94,17.7.3A5.9,5.9,0,0,1,582.48,764.69Z"/><path class="cls-10" d="M580.29,766.17a5,5,0,0,1,6.67,2.36,4.71,4.71,0,0,1,.21.52c2.12,5.12,6.87,16.25,6.87,16.25s10.5,9.75,4.13,18.87c-4,5.72-14.76,2.85-22.24-.09a20.73,20.73,0,0,1-8.8-7.11,3.26,3.26,0,0,0-2.34-1.3,9.8,9.8,0,0,1-4.44-2,5.73,5.73,0,0,1-2.31-4.88l.63-14s.75-9.73,3.12-9.12S576.29,769.05,580.29,766.17Z"/><path class="cls-11" d="M528.6,497.17l-20.19,21.4-.56.6-.73-.43c-4.22-2.5-25.33-15.24-23.52-19.07,1-2.18,1.59-6.72,1.9-10.63,0-.47.06-.93.1-1.38.2-3.09.25-5.49.25-5.49s38-6.5,36.5,0c-.61,2.63.3,5.59,1.59,8.18.38.75.8,1.46,1.21,2.13A32.91,32.91,0,0,0,528.6,497.17Z"/><path class="cls-9" d="M523.94,490.35a29.65,29.65,0,0,1-38.34-2.69c.2-3.09.25-5.49.25-5.49s38-6.5,36.5,0C521.77,484.82,522.65,487.76,523.94,490.35Z"/><path class="cls-11" d="M536,465.46a29.67,29.67,0,0,1-59.24,2.82q-.12-1.39-.12-2.82A29.67,29.67,0,1,1,536,464.37c0,.36,0,.73,0,1.09Z"/><path class="cls-11" d="M535.47,630.92l-5.4,1.47-12.47,3.43a30,30,0,0,1-9.59,4.77c-7.63,1.93-12.56-2.27-16.66-8.77-1.65-2.6-.82-4.68,1.34-6.31,5.2-3.93,18.06-5.21,22-4.69a16.42,16.42,0,0,0,7.59-1.18,29.76,29.76,0,0,0,4.91-2.32Z"/><path class="cls-9" d="M535.47,630.92l-5.4,1.47c-1.55-4.67-4.1-10.53-7.75-12.78a29.76,29.76,0,0,0,4.91-2.32Z"/><path class="cls-9" d="M572,618.06c-2.24,1.81-4.14,3.46-4.14,3.46s-26,8.15-31,18.4c0,0-4-20-12.5-20.25,0,0,9.15-3.59,11.79-6.66l25.63-1.34A118.58,118.58,0,0,1,572,618.06Z"/><path class="cls-12" d="M571.6,539.67l5.75,8.5,1.75,26.5s.5,25.5,0,26.5l.5-1s-1,10-4,11.75-9.75,7.6-9.75,7.6-26,8.15-31,18.4c0,0-4-20-12.5-20.25,0,0,12.75-5,12.5-8.25,0,0,9.75-8.75,10.5-11s5.62-2.5,5.62-2.5,1.13-15.5-1.12-18-3.5-7.25-3.5-7.25Z"/><path class="cls-9" d="M508,640.56c-7.63,1.93-12.56-2.27-16.66-8.77-1.65-2.6-.82-4.68,1.34-6.31l.78.31S507.22,631.75,508,640.56Z"/><path class="cls-11" d="M504.85,648.55c-9,12.5-25.75-4.88-27-8.38-.45-1.27-2.16-2.4-4.13-3.31a44.85,44.85,0,0,0-7.75-2.57l14.88-12.12,2.85,1.14,8.77,3.51S513.85,636.05,504.85,648.55Z"/><path class="cls-9" d="M483.7,623.31c-8.2,3.9-9.95,9.51-10,13.55a44.85,44.85,0,0,0-7.75-2.57l14.88-12.12Z"/><path class="cls-9" d="M470.6,644.92s-24-19-35.5-27.25a28.06,28.06,0,0,1-4-3.46c3.4-2.14,5.94-3.54,5.94-3.54l29.58,1.2c.79,1.37,1.26,2.3,1.26,2.3l16,10.5C464.6,630.92,470.6,644.92,470.6,644.92Z"/><path class="cls-12" d="M438.6,545.17l-4.75,2.75s-5.75,18.25-4.25,30.25c0,0-4.5,17.25-2.75,20,0,0-2.25,9.25,9.25,17.5s35.5,27.25,35.5,27.25-6-14,13.25-20.25l-16-10.5s-5.37-10.66-10.5-13c0,0-4-4-1.5-6.75s4.5-5.75,4.5-8.5,1-15.75,1-15.75l3-14Z"/><path class="cls-9" d="M525.94,493.17l12.6,3.25s-11.94,31-14.57,31l-15.12-7.25Z"/><path class="cls-9" d="M528.6,497.17l-20.19,21.4-.56.6-.73-.43,17.65-26.92.43.71A32.89,32.89,0,0,0,528.6,497.17Z"/><path class="cls-13" d="M524.94,492.17l12.6,3.25s-11.94,31-14.57,31l-15.12-7.25Z"/><path class="cls-9" d="M484.52,489.73l-10.92,3.44s10.75,32.5,13.75,34.25l19.5-7.25Z"/><path class="cls-9" d="M508.41,518.57l-.56.6s-26.25-15.25-24.25-19.5c1-2.18,1.59-6.72,1.9-10.63v-.61Z"/><path class="cls-13" d="M485.52,488.73l-10.92,3.44s10.75,32.5,13.75,34.25l19.5-7.25Z"/><path class="cls-9" d="M459.51,541.82s6.58,1.17,6.46,8,2.71-8.83,2.71-8.83Z"/><path class="cls-9" d="M461,562.82s-1.83,10.33,0,19.67,1.67,12.5,3.09,13S461,562.82,461,562.82Z"/><path class="cls-9" d="M545,561.82a3.63,3.63,0,0,0-3.14,4,4.29,4.29,0,0,0,.14.62C542.85,570.67,545,561.82,545,561.82Z"/><path class="cls-9" d="M430.68,596.82s21.43-1.83,25,2S430.68,596.82,430.68,596.82Z"/><path class="cls-9" d="M555,598.27s15.67-1.93,19.34.74"/><path class="cls-9" d="M561.35,600.82s9.33.33,11.5,1.5"/><path class="cls-9" d="M563.18,604.17s8.5-.33,9.67,1"/><path class="cls-9" d="M443.31,651.17s7.28,3.79,6.54,7.66S443.31,651.17,443.31,651.17Z"/><path class="cls-9" d="M437,653s11.11,14.41,9.6,19.16S437,653,437,653Z"/><path class="cls-9" d="M556.1,655.4s-5.5,4.53-5.35,8.27"/><path class="cls-9" d="M429.1,744.67s0,4.25,7.87,10.5"/><path class="cls-9" d="M568,734.67s-.84,8.84-8.5,13.42"/><path class="cls-9" d="M404.77,784.3s8.17-2.52,11.56,2.26"/><path class="cls-9" d="M594,785.3s-13.53-.79-13,2.87"/><ellipse class="cls-2" cx="864.17" cy="773.34" rx="26.93" ry="4.55"/><ellipse class="cls-2" cx="91.09" cy="810.68" rx="26.93" ry="4.55"/><ellipse class="cls-2" cx="195.26" cy="835.09" rx="26.93" ry="4.55"/><ellipse class="cls-3" cx="805.22" cy="822.1" rx="40.21" ry="6.8"/><path class="cls-3" d="M821.85,811a11.73,11.73,0,0,0,3.83-5.79c.5-2.29-.48-5-2.68-5.89-2.46-.94-5.09.77-7.08,2.49s-4.28,3.69-6.89,3.32a10.48,10.48,0,0,0,3.25-9.81,4.12,4.12,0,0,0-.91-2c-1.36-1.46-3.84-.84-5.47.32-5.2,3.65-6.65,10.72-6.68,17.07-.53-2.29-.08-4.68-.1-7s-.65-5-2.64-6.23a8,8,0,0,0-4-.94c-2.34-.09-4.94.15-6.54,1.86-2,2.12-1.46,5.68.26,8s4.35,3.81,6.77,5.42a14.88,14.88,0,0,1,4.83,4.61,4.09,4.09,0,0,1,.36.83h14.61A41,41,0,0,0,821.85,811Z"/><path class="cls-3" d="M196.65,723.27s5.5,7.19-2.53,18-14.65,20-12,26.77c0,0,12.12-20.15,22-20.43S207.5,735.39,196.65,723.27Z"/><path class="cls-9" d="M196.65,723.27a8.83,8.83,0,0,1,1.12,2.26c9.62,11.3,14.75,21.85,5.5,22.11-8.61.25-18.94,15.65-21.42,19.54.08.3.18.59.29.89,0,0,12.12-20.15,22-20.43S207.5,735.39,196.65,723.27Z"/><path class="cls-14" d="M206.86,732.43c0,2.53-.28,4.58-.63,4.58s-.63-2-.63-4.58.35-1.34.7-1.34S206.86,729.9,206.86,732.43Z"/><path class="cls-14" d="M210.37,735.45c-2.22,1.21-4.16,1.94-4.32,1.63s1.49-1.54,3.71-2.75,1.35-.33,1.51,0S212.59,734.24,210.37,735.45Z"/><path class="cls-3" d="M167.64,723.27s-5.5,7.19,2.53,18,14.65,20,12,26.77c0,0-12.11-20.15-22-20.43S156.77,735.39,167.64,723.27Z"/><path class="cls-9" d="M167.64,723.27a9.19,9.19,0,0,0-1.13,2.26c-9.62,11.3-14.74,21.85-5.5,22.11,8.62.25,19,15.65,21.43,19.54a7.16,7.16,0,0,1-.3.89s-12.11-20.15-22-20.43S156.77,735.39,167.64,723.27Z"/><path class="cls-14" d="M157.42,732.43c0,2.53.29,4.58.64,4.58s.63-2,.63-4.58-.35-1.34-.7-1.34S157.42,729.9,157.42,732.43Z"/><path class="cls-14" d="M153.92,735.45c2.22,1.21,4.15,1.94,4.32,1.63s-1.5-1.54-3.72-2.75-1.34-.33-1.51,0S151.7,734.24,153.92,735.45Z"/><path class="cls-15" d="M159.17,767.13s15.36-.48,20-3.77,23.63-7.24,24.77-2,23.09,26.29,5.75,26.43-40.3-2.7-44.92-5.51S159.17,767.13,159.17,767.13Z"/><path class="cls-16" d="M210,786c-17.34.14-40.3-2.7-44.92-5.51-3.51-2.15-4.92-9.84-5.39-13.38h-.51s1,12.38,5.59,15.2,27.58,5.65,44.92,5.51c5,0,6.73-1.82,6.64-4.46C215.62,785,213.71,786,210,786Z"/><polyline class="cls-17" points="525.79 522.65 543.43 527.42 517.86 613.65"/><circle class="cls-12" cx="522.89" cy="553.67" r="2.13"/><circle class="cls-12" cx="488.64" cy="553.67" r="2.13"/><circle class="cls-12" cx="521.89" cy="572.35" r="2.13"/><circle class="cls-12" cx="487.65" cy="572.35" r="2.13"/><circle class="cls-12" cx="516.68" cy="595.04" r="2.13"/><circle class="cls-12" cx="482.43" cy="595.04" r="2.13"/><path d="M536,465.46c1.2-8.81-5.37-17.53-5.37-17.53-26.83-16.67-49.26.91-49.26.91s-5.88,8.08-4.73,16.62c0,0,29.19-16.92,59.33-1.09"/><image width="512" height="512" transform="translate(656.19 643.16) scale(0.25)" xlink:href="../site/pedido%20online/2855503d0be5396c3d1e07018417dca8---cone-de-cor-de-sushi-by-vexels.png"/><image width="1730" height="1734" transform="translate(498.77 441.75) scale(0.01)" xlink:href="../site/site2.0/logo_transp.png"/></svg>